<mxfile host="70cb849d-1858-4e54-b7dc-bfd1efe7df70" modified="2020-09-24T08:30:17.980Z" agent="5.0 (Windows NT 10.0; Win64; x64) AppleWebKit/537.36 (KHTML, like Gecko) Code/1.49.1 Chrome/83.0.4103.122 Electron/9.2.1 Safari/537.36" etag="ttQ5X7DeUexWPIZGNXqi" version="13.1.3">
    <diagram id="6hGFLwfOUW9BJ-s0fimq" name="Page-1">
        <mxGraphModel dx="819" dy="559" grid="1" gridSize="10" guides="1" tooltips="1" connect="1" arrows="1" fold="1" page="1" pageScale="1" pageWidth="827" pageHeight="1169" math="0" shadow="0">
            <root>
                <mxCell id="0"/>
                <mxCell id="1" parent="0"/>
                <mxCell id="2" value="Pool" style="swimlane;html=1;childLayout=stackLayout;resizeParent=1;resizeParentMax=0;startSize=20;" vertex="1" parent="1">
                    <mxGeometry x="150" y="30" width="530" height="460" as="geometry">
                        <mxRectangle x="230" y="30" width="60" height="20" as="alternateBounds"/>
                    </mxGeometry>
                </mxCell>
                <mxCell id="3" value="UI" style="swimlane;html=1;startSize=20;" vertex="1" parent="2">
                    <mxGeometry y="20" width="140" height="440" as="geometry"/>
                </mxCell>
                <mxCell id="18" style="edgeStyle=orthogonalEdgeStyle;rounded=0;orthogonalLoop=1;jettySize=auto;html=1;entryX=0.5;entryY=0;entryDx=0;entryDy=0;" edge="1" parent="3" source="12" target="17">
                    <mxGeometry relative="1" as="geometry"/>
                </mxCell>
                <mxCell id="12" value="addAtom" style="ellipse;whiteSpace=wrap;html=1;" vertex="1" parent="3">
                    <mxGeometry x="30" y="40" width="80" height="40" as="geometry"/>
                </mxCell>
                <mxCell id="17" value="" style="rounded=1;whiteSpace=wrap;html=1;arcSize=24;" vertex="1" parent="3">
                    <mxGeometry x="15" y="110" width="110" height="60" as="geometry"/>
                </mxCell>
                <mxCell id="47" value="ShowAddAtomView" style="rounded=1;whiteSpace=wrap;html=1;arcSize=24;" vertex="1" parent="3">
                    <mxGeometry x="15" y="240" width="110" height="60" as="geometry"/>
                </mxCell>
                <mxCell id="4" value="FrontRender" style="swimlane;html=1;startSize=20;" vertex="1" parent="2">
                    <mxGeometry x="140" y="20" width="120" height="440" as="geometry"/>
                </mxCell>
                <mxCell id="19" value="change state:&lt;br&gt;getPosition" style="rounded=1;whiteSpace=wrap;html=1;" vertex="1" parent="4">
                    <mxGeometry x="10" y="110" width="100" height="60" as="geometry"/>
                </mxCell>
                <mxCell id="40" value="selectedPosition" style="rounded=1;whiteSpace=wrap;html=1;" vertex="1" parent="4">
                    <mxGeometry x="10" y="240" width="100" height="60" as="geometry"/>
                </mxCell>
                <mxCell id="54" value="" style="ellipse;whiteSpace=wrap;html=1;aspect=fixed;" vertex="1" parent="4">
                    <mxGeometry x="45" y="190" width="30" height="30" as="geometry"/>
                </mxCell>
                <mxCell id="58" value="addAtom" style="rounded=1;whiteSpace=wrap;html=1;" vertex="1" parent="4">
                    <mxGeometry x="10" y="325" width="100" height="60" as="geometry"/>
                </mxCell>
                <mxCell id="5" value="MessagePassing" style="swimlane;html=1;startSize=20;" vertex="1" parent="2">
                    <mxGeometry x="260" y="20" width="120" height="440" as="geometry">
                        <mxRectangle x="240" y="20" width="30" height="460" as="alternateBounds"/>
                    </mxGeometry>
                </mxCell>
                <mxCell id="11" value="BackendRender" style="swimlane;html=1;startSize=20;" vertex="1" parent="2">
                    <mxGeometry x="380" y="20" width="150" height="440" as="geometry">
                        <mxRectangle x="240" y="20" width="30" height="460" as="alternateBounds"/>
                    </mxGeometry>
                </mxCell>
                <mxCell id="30" style="edgeStyle=orthogonalEdgeStyle;rounded=0;orthogonalLoop=1;jettySize=auto;html=1;entryX=0.5;entryY=0;entryDx=0;entryDy=0;" edge="1" parent="11" source="28" target="24">
                    <mxGeometry relative="1" as="geometry"/>
                </mxCell>
                <mxCell id="28" value="" style="ellipse;whiteSpace=wrap;html=1;aspect=fixed;" vertex="1" parent="11">
                    <mxGeometry x="60" y="190" width="30" height="30" as="geometry"/>
                </mxCell>
                <mxCell id="29" style="edgeStyle=orthogonalEdgeStyle;rounded=0;orthogonalLoop=1;jettySize=auto;html=1;entryX=0.5;entryY=0;entryDx=0;entryDy=0;" edge="1" parent="11" source="21" target="28">
                    <mxGeometry relative="1" as="geometry"/>
                </mxCell>
                <mxCell id="21" value="" style="rounded=1;whiteSpace=wrap;html=1;" vertex="1" parent="11">
                    <mxGeometry x="25" y="110" width="100" height="60" as="geometry"/>
                </mxCell>
                <mxCell id="24" value="" style="rounded=1;whiteSpace=wrap;html=1;" vertex="1" parent="11">
                    <mxGeometry x="25" y="240" width="100" height="60" as="geometry"/>
                </mxCell>
                <mxCell id="60" value="addAtom" style="rounded=1;whiteSpace=wrap;html=1;" vertex="1" parent="11">
                    <mxGeometry x="25" y="325" width="100" height="60" as="geometry"/>
                </mxCell>
                <mxCell id="20" style="edgeStyle=orthogonalEdgeStyle;rounded=0;orthogonalLoop=1;jettySize=auto;html=1;entryX=0;entryY=0.5;entryDx=0;entryDy=0;" edge="1" parent="2" source="17" target="19">
                    <mxGeometry relative="1" as="geometry"/>
                </mxCell>
                <mxCell id="22" style="edgeStyle=orthogonalEdgeStyle;rounded=0;orthogonalLoop=1;jettySize=auto;html=1;" edge="1" parent="2" source="19" target="21">
                    <mxGeometry relative="1" as="geometry"/>
                </mxCell>
                <mxCell id="41" value="" style="edgeStyle=orthogonalEdgeStyle;rounded=0;orthogonalLoop=1;jettySize=auto;shadow=0;comic=0;" edge="1" parent="2" source="24" target="40">
                    <mxGeometry relative="1" as="geometry">
                        <Array as="points">
                            <mxPoint x="360" y="290"/>
                            <mxPoint x="360" y="290"/>
                        </Array>
                    </mxGeometry>
                </mxCell>
                <mxCell id="46" value="Position" style="edgeLabel;html=1;align=center;verticalAlign=middle;resizable=0;points=[];" vertex="1" connectable="0" parent="41">
                    <mxGeometry x="-0.1712" y="-2" relative="1" as="geometry">
                        <mxPoint x="-20.71" y="-8" as="offset"/>
                    </mxGeometry>
                </mxCell>
                <mxCell id="48" style="edgeStyle=orthogonalEdgeStyle;rounded=0;comic=0;orthogonalLoop=1;jettySize=auto;html=0;entryX=1;entryY=0.5;entryDx=0;entryDy=0;shadow=0;" edge="1" parent="2" source="40" target="47">
                    <mxGeometry relative="1" as="geometry"/>
                </mxCell>
                <mxCell id="57" style="edgeStyle=orthogonalEdgeStyle;curved=1;rounded=0;comic=0;orthogonalLoop=1;jettySize=auto;html=0;entryX=0;entryY=0.5;entryDx=0;entryDy=0;shadow=0;strokeColor=#FFFFFF;" edge="1" parent="2" source="54" target="28">
                    <mxGeometry relative="1" as="geometry"/>
                </mxCell>
                <mxCell id="59" style="edgeStyle=orthogonalEdgeStyle;rounded=0;comic=0;orthogonalLoop=1;jettySize=auto;html=0;entryX=0;entryY=0.5;entryDx=0;entryDy=0;shadow=0;strokeColor=#FFFFFF;" edge="1" parent="2" source="47" target="58">
                    <mxGeometry relative="1" as="geometry">
                        <Array as="points">
                            <mxPoint x="70" y="375"/>
                        </Array>
                    </mxGeometry>
                </mxCell>
                <mxCell id="61" style="edgeStyle=orthogonalEdgeStyle;rounded=0;comic=0;orthogonalLoop=1;jettySize=auto;html=0;entryX=0;entryY=0.5;entryDx=0;entryDy=0;shadow=0;strokeColor=#FFFFFF;" edge="1" parent="2" source="58" target="60">
                    <mxGeometry relative="1" as="geometry"/>
                </mxCell>
                <mxCell id="16" style="orthogonalLoop=1;jettySize=auto;html=1;rounded=0;strokeColor=#FFFFFF;fillColor=#f5f5f5;edgeStyle=orthogonalEdgeStyle;curved=1;" edge="1" parent="1" source="13" target="12">
                    <mxGeometry relative="1" as="geometry">
                        <Array as="points">
                            <mxPoint x="110" y="270"/>
                            <mxPoint x="110" y="110"/>
                        </Array>
                    </mxGeometry>
                </mxCell>
                <mxCell id="55" style="edgeStyle=orthogonalEdgeStyle;curved=1;rounded=0;comic=0;orthogonalLoop=1;jettySize=auto;html=0;entryX=0;entryY=0.5;entryDx=0;entryDy=0;shadow=0;strokeColor=#FFFFFF;" edge="1" parent="1" source="13" target="54">
                    <mxGeometry relative="1" as="geometry">
                        <Array as="points">
                            <mxPoint x="130" y="280"/>
                            <mxPoint x="130" y="255"/>
                        </Array>
                    </mxGeometry>
                </mxCell>
                <mxCell id="56" value="Canvas LeftClick" style="edgeLabel;html=1;align=center;verticalAlign=middle;resizable=0;points=[];" vertex="1" connectable="0" parent="55">
                    <mxGeometry x="-0.0553" y="-3" relative="1" as="geometry">
                        <mxPoint x="55.31" y="-13" as="offset"/>
                    </mxGeometry>
                </mxCell>
                <mxCell id="13" value="User" style="shape=umlActor;verticalLabelPosition=bottom;labelBackgroundColor=#ffffff;verticalAlign=top;html=1;outlineConnect=0;" vertex="1" parent="1">
                    <mxGeometry x="30" y="260" width="30" height="60" as="geometry"/>
                </mxCell>
            </root>
        </mxGraphModel>
    </diagram>
</mxfile>